<svg width="40" height="40" viewBox="0 0 40 40" fill="none" xmlns="http://www.w3.org/2000/svg">
<path d="M21.8812 20L32.0812 10.9338C32.2705 10.7653 32.4042 10.5432 32.4644 10.297C32.5246 10.0508 32.5086 9.79217 32.4184 9.55531C32.3283 9.31845 32.1682 9.1146 31.9596 8.97077C31.7509 8.82695 31.5034 8.74996 31.25 8.75H27.5V2.5H25V11.25H27.9625L20 18.3275L12.0375 11.25H15V2.5H12.5V8.75H8.74998C8.49654 8.74996 8.24907 8.82695 8.0404 8.97077C7.83172 9.1146 7.67169 9.31845 7.58153 9.55531C7.49137 9.79217 7.47534 10.0508 7.53556 10.297C7.59578 10.5432 7.72941 10.7653 7.91873 10.9338L18.1187 20L7.91873 29.0662C7.72941 29.2347 7.59578 29.4568 7.53556 29.703C7.47534 29.9492 7.49137 30.2078 7.58153 30.4447C7.67169 30.6815 7.83172 30.8854 8.0404 31.0292C8.24907 31.173 8.49654 31.25 8.74998 31.25H12.5V37.5H15V28.75H12.0375L20 21.6725L27.9625 28.75H25V37.5H27.5V31.25H31.25C31.5033 31.2498 31.7506 31.1726 31.9591 31.0287C32.1676 30.8848 32.3274 30.6809 32.4174 30.4441C32.5074 30.2073 32.5233 29.9487 32.4631 29.7027C32.4028 29.4566 32.2692 29.2347 32.08 29.0662L21.8812 20Z" fill="#245717"/>
</svg>
