<svg width="40" height="40" viewBox="0 0 40 40" fill="none" xmlns="http://www.w3.org/2000/svg">
<path fill-rule="evenodd" clip-rule="evenodd" d="M19.9833 3.33331C10.7833 3.33331 3.33331 10.8 3.33331 20C3.33331 29.2 10.7833 36.6666 19.9833 36.6666C29.2 36.6666 36.6666 29.2 36.6666 20C36.6666 10.8 29.2 3.33331 19.9833 3.33331ZM20 33.3333C12.6333 33.3333 6.66665 27.3666 6.66665 20C6.66665 12.6333 12.6333 6.66665 20 6.66665C27.3666 6.66665 33.3333 12.6333 33.3333 20C33.3333 27.3666 27.3666 33.3333 20 33.3333ZM18.3333 21.7833L27.4833 27.2666L29.1833 24.4L21.6666 19.8833V10.7H18.3333V21.7833Z" fill="#49454F"/>
</svg>
