<svg width="32" height="32" viewBox="0 0 32 32" fill="none" xmlns="http://www.w3.org/2000/svg">
<path d="M13.5189 23C14.1588 23.8 14.9854 24.192 15.9987 24.176C17.0119 24.16 17.7585 23.7013 18.2385 22.8L27.1977 6L13.7589 17.2C13.0389 17.8 12.6592 18.7167 12.6197 19.95C12.5803 21.1833 12.88 22.2 13.5189 23ZM15.9987 2.53485e-06C17.5719 2.53485e-06 19.0853 0.275336 20.5391 0.826003C21.9928 1.37667 23.3591 2.20134 24.6379 3.3L21.5982 5.7C20.7183 5.13334 19.8053 4.70867 18.8592 4.426C17.9132 4.14334 16.9597 4.00134 15.9987 4C12.4523 4 9.43228 5.558 6.93862 8.674C4.44496 11.79 3.19867 15.5653 3.19973 20C3.19973 21.4 3.35332 22.7833 3.6605 24.15C3.96767 25.5167 4.4007 26.8 4.95959 28H27.0377C27.651 26.7333 28.0979 25.4167 28.3784 24.05C28.6589 22.6833 28.7987 21.2667 28.7976 19.8C28.7976 18.6 28.684 17.4333 28.4568 16.3C28.2296 15.1667 27.8899 14.0667 27.4377 13L29.3576 9.2C30.1575 10.7667 30.791 12.4333 31.2582 14.2C31.7254 15.9667 31.9717 17.8 31.9973 19.7C32.024 21.6 31.8507 23.4167 31.4774 25.15C31.1041 26.8833 30.5575 28.5333 29.8375 30.1C29.5442 30.7 29.1442 31.1667 28.6376 31.5C28.131 31.8333 27.5977 32 27.0377 32H4.95959C4.39963 32 3.86634 31.8333 3.35972 31.5C2.8531 31.1667 2.45313 30.7 2.15982 30.1C1.46654 28.6 0.933255 27.008 0.559953 25.324C0.186651 23.64 0 21.8653 0 20C0 17.2333 0.420232 14.6413 1.2607 12.224C2.10116 9.80667 3.24773 7.69067 4.70041 5.876C6.15309 4.05867 7.85215 2.62467 9.79758 1.574C11.743 0.523336 13.81 -0.0013308 15.9987 2.53485e-06Z" fill="#92212E"/>
</svg>
