<svg width="40" height="40" viewBox="0 0 40 40" fill="none" xmlns="http://www.w3.org/2000/svg">
<g clip-path="url(#clip0_54542_24362)">
<path d="M0.825126 17.1737C0.446067 17.3926 0.169491 17.7532 0.0562235 18.176C-0.0570442 18.5989 0.00227175 19.0494 0.221126 19.4285L7.55713 32.1357C7.66554 32.3234 7.80987 32.488 7.98188 32.62C8.15389 32.7519 8.35021 32.8487 8.55963 32.9048C8.76904 32.9609 8.98746 32.9752 9.2024 32.9468C9.41734 32.9185 9.62459 32.8481 9.81233 32.7397L39.1747 15.7877C39.3625 15.6793 39.527 15.535 39.659 15.3629C39.7909 15.1909 39.8877 14.9946 39.9438 14.7852C39.9999 14.5758 40.0142 14.3574 39.9859 14.1424C39.9575 13.9275 39.8872 13.7202 39.7787 13.5325L32.4427 0.825296C32.3343 0.637551 32.19 0.473 32.018 0.341038C31.846 0.209076 31.6496 0.112288 31.4402 0.0562006C31.2308 0.000113297 31.0124 -0.0141749 30.7975 0.0141523C30.5825 0.0424795 30.3753 0.112867 30.1875 0.221296L0.825126 17.1737ZM3.90553 19.2073L30.4087 3.9057L36.0943 13.7537L34.1843 14.8565L32.0535 11.1649L30.6239 11.9905L32.7547 15.6817L30.5687 16.9441L28.4375 13.2525L27.0079 14.0781L29.1391 17.7693L26.9555 19.0301L24.8243 15.3385L23.3947 16.1641L25.5259 19.8553L23.3399 21.1177L20.3783 15.9885L18.9487 16.8137L21.9103 21.9429L19.7239 23.2053L17.5927 19.5137L16.1631 20.3393L18.2943 24.0305L16.1107 25.2909L13.9799 21.5997L12.5503 22.4253L14.6811 26.1165L12.4951 27.3785L10.3639 23.6873L8.93433 24.5129L11.0655 28.2041L9.59113 29.0553L3.90553 19.2073Z" fill="#3EC896"/>
</g>
<defs>
<clipPath id="clip0_54542_24362">
<rect width="40" height="40" fill="white"/>
</clipPath>
</defs>
</svg>
