<svg width="40" height="40" viewBox="0 0 40 40" fill="none" xmlns="http://www.w3.org/2000/svg">
<path d="M9.99999 31.6667H30L27.625 15H12.375L9.99999 31.6667ZM20 11.6667C20.4722 11.6667 20.8683 11.5067 21.1883 11.1867C21.5083 10.8667 21.6678 10.4711 21.6667 10C21.6667 9.52778 21.5067 9.13167 21.1867 8.81167C20.8667 8.49167 20.4711 8.33222 20 8.33333C19.5278 8.33333 19.1317 8.49333 18.8117 8.81333C18.4917 9.13333 18.3322 9.52889 18.3333 10C18.3333 10.4722 18.4933 10.8683 18.8133 11.1883C19.1333 11.5083 19.5289 11.6678 20 11.6667ZM24.7083 11.6667H27.625C28.4583 11.6667 29.1805 11.9444 29.7917 12.5C30.4028 13.0556 30.7778 13.7361 30.9167 14.5417L33.2917 31.2083C33.4305 32.2083 33.1733 33.0906 32.52 33.855C31.8667 34.6194 31.0267 35.0011 30 35H9.99999C8.97221 35 8.13166 34.6178 7.47832 33.8533C6.82499 33.0889 6.56832 32.2072 6.70832 31.2083L9.08332 14.5417C9.22221 13.7361 9.59721 13.0556 10.2083 12.5C10.8194 11.9444 11.5417 11.6667 12.375 11.6667H15.2917C15.2083 11.3889 15.1389 11.1183 15.0833 10.855C15.0278 10.5917 15 10.3067 15 10C15 8.61111 15.4861 7.43056 16.4583 6.45833C17.4305 5.48611 18.6111 5 20 5C21.3889 5 22.5694 5.48611 23.5417 6.45833C24.5139 7.43056 25 8.61111 25 10C25 10.3056 24.9722 10.5906 24.9167 10.855C24.8611 11.1194 24.7917 11.39 24.7083 11.6667Z" fill="#A60707"/>
</svg>
