<svg width="40" height="40" viewBox="0 0 40 40" fill="none" xmlns="http://www.w3.org/2000/svg">
<g id="mdi:surface-area">
<path id="Vector" d="M33.3333 3.33331H6.66665C4.83331 3.33331 3.33331 4.83331 3.33331 6.66665V33.3333C3.33331 34.2174 3.6845 35.0652 4.30962 35.6903C4.93474 36.3155 5.78259 36.6666 6.66665 36.6666H33.3333C35.1833 36.6666 36.6666 35.1833 36.6666 33.3333V6.66665C36.6666 5.78259 36.3155 4.93474 35.6903 4.30962C35.0652 3.6845 34.2174 3.33331 33.3333 3.33331ZM6.66665 9.99998L9.99998 6.66665H18.1666L6.66665 18.1666V9.99998ZM6.66665 22.8333L22.8333 6.66665H31L6.66665 31V22.8333ZM33.3333 30L30 33.3333H21.8333L33.3333 21.8333V30ZM33.3333 17.1666L17.1666 33.3333H8.99998L33.3333 8.99998V17.1666Z" fill="#58D4DC"/>
</g>
</svg>
